<svg xmlns="http://www.w3.org/2000/svg" viewBox="0 0 100 100">
  <defs>
    <linearGradient id="grad1" x1="0%" y1="0%" x2="100%" y2="100%">
      <stop offset="0%" style="stop-color:#0db7ed;stop-opacity:1" />
      <stop offset="100%" style="stop-color:#005c99;stop-opacity:1" />
    </linearGradient>
    <filter id="shadow">
      <feDropShadow dx="2" dy="2" stdDeviation="3" flood-color="#000000" flood-opacity="0.5" />
    </filter>
  </defs>
  <circle cx="50" cy="50" r="45" fill="url(#grad1)" filter="url(#shadow)" />
  <g fill="#ffffff" transform="translate(20, 20) scale(0.6)">
    <path d="M7.05 10.5h4.8v4.8H7.05zM13.95 10.5h4.8v4.8h-4.8zM20.85 10.5h4.8v4.8h-4.8zM20.85 3.6h4.8v4.8h-4.8zM27.75 3.6h4.8v4.8h-4.8zM7.05 17.4h4.8v4.8H7.05zM13.95 17.4h4.8v4.8h-4.8zM20.85 17.4h4.8v4.8h-4.8zM27.75 17.4h4.8v4.8h-4.8zM27.75 10.5h4.8v4.8h-4.8zM34.65 10.5h4.8v4.8h-4.8zM34.65 17.4h4.8v4.8h-4.8zM3.5 24.5c0 8.8 6.4 16.1 14.9 17.6v-6.8h5.3v6.8c8.5-1.5 14.9-8.8 14.9-17.6H3.5z"/>
    <circle cx="7" cy="38" r="1.5" />
    <circle cx="11" cy="38" r="1.5" />
    <circle cx="15" cy="38" r="1.5" />
  </g>
</svg>